<?xml version="1.0" encoding="UTF-8"?>
<svg width="76px" height="76px" viewBox="0 0 76 76" version="1.1" xmlns="http://www.w3.org/2000/svg" xmlns:xlink="http://www.w3.org/1999/xlink">
    <!-- Generator: Sketch 55.2 (78181) - https://sketchapp.com -->
    <title>Group 13</title>
    <desc>Created with Sketch.</desc>
    <g id="Leaderboard-HI-FI" stroke="none" stroke-width="1" fill="none" fill-rule="evenodd">
        <g id="Artboard" transform="translate(-166.000000, -75.000000)">
            <g id="Group-13" transform="translate(166.000000, 75.000000)">
                <path d="M36.9434417,32.2033617 L24.4716997,3.58432686 C24.2483352,3.07168363 24.4927818,2.47926206 25.0177184,2.26110299 C25.0300436,2.25598076 25.0424696,2.25109313 25.0549894,2.24644287 C29.1073009,0.741287268 33.3880165,-0.00750810861 37.8971362,-5.68434189e-14 C42.4052858,0.00776170599 46.6531442,0.770674095 50.6407113,2.28879391 C51.172264,2.491158 51.4351807,3.07601501 51.227954,3.59510422 C51.2244245,3.60394525 51.2207675,3.61273721 51.216984,3.62147747 L38.8454391,32.2011285 C38.6232982,32.7142988 38.0172237,32.9544465 37.4917337,32.7375135 C37.2449524,32.6356371 37.048357,32.4441118 36.9434417,32.2033617 Z" id="Triangle" fill="#F3A82E"></path>
                <ellipse id="Oval-Copy-5" fill="#D0021B" cx="32.3216417" cy="8.07036969" rx="4.13202792" ry="4.03515647"></ellipse>
                <ellipse id="Oval-Copy-6" fill="#D0021B" cx="43.168215" cy="7.56597514" rx="3.61552443" ry="3.53076192"></ellipse>
                <ellipse id="Oval-Copy" fill="#D0021B" cx="37.4866766" cy="19.16705" rx="4.13202792" ry="4.03515647"></ellipse>
                <path d="M52.0612897,38.4652011 L39.5892033,9.84630156 C39.3658327,9.33366076 39.6102764,8.7412462 40.1352156,8.52309336 C40.1475408,8.51797127 40.1599669,8.51308379 40.1724868,8.50843368 C44.2248196,7.00332464 48.5055648,6.25457141 53.0147223,6.26211667 C57.5229097,6.26991666 61.7708101,7.03285825 65.7584234,8.55099876 C66.2899822,8.75336561 66.552906,9.33821993 66.3456819,9.85730304 C66.3421525,9.86614397 66.3384956,9.87493582 66.3347121,9.88367598 L53.963303,38.4629838 C53.7411645,38.976148 53.1350869,39.2162886 52.6095908,38.999353 C52.3628065,38.8974754 52.1662079,38.7059501 52.0612897,38.4652011 Z" id="Triangle" fill="#F3A82E" transform="translate(52.961486, 22.670673) rotate(45.000000) translate(-52.961486, -22.670673) "></path>
                <path d="M58.3230701,53.5830988 L45.8511191,24.9645436 C45.6277508,24.451909 45.8722016,23.8594973 46.397147,23.6413419 C46.4094723,23.6362198 46.4218986,23.6313322 46.4344186,23.626682 C50.486798,22.1215517 54.7675853,21.3727688 59.2767806,21.3802768 C63.7850057,21.3880384 68.0329353,22.150938 72.0205693,23.6690324 C72.5521309,23.8713931 72.815052,24.4562403 72.6078218,24.9753208 C72.6042923,24.9841617 72.6006352,24.9929535 72.5968516,25.0016936 L60.2250994,53.5808656 C60.0029547,54.0940273 59.3968701,54.334171 58.8713713,54.1172417 C58.6245858,54.015367 58.4279872,53.8238449 58.3230701,53.5830988 Z" id="Triangle" fill="#F3A82E" transform="translate(59.223517, 37.788695) rotate(90.000000) translate(-59.223517, -37.788695) "></path>
                <path d="M52.060804,68.7012614 L39.5891973,40.0825709 C39.3658352,39.5699339 39.6102889,38.9775152 40.1352317,38.7593536 C40.147557,38.7542313 40.1599832,38.7493436 40.1725031,38.7446933 C44.2248612,37.2395163 48.5056189,36.4906913 53.0147763,36.4981622 C57.5229636,36.5058855 61.7708512,37.2687559 65.7584391,38.7868295 C66.2899945,38.9891875 66.5529085,39.5740374 66.3456757,40.093124 C66.3421461,40.101965 66.338489,40.1107569 66.3347054,40.1194971 L53.9628173,68.6990123 C53.7406703,69.2121801 53.1345887,69.452331 52.6090962,69.2354042 C52.3623136,69.1335307 52.1657181,68.9420086 52.060804,68.7012614 Z" id="Triangle" fill="#F3A82E" transform="translate(52.961486, 52.906718) rotate(135.000000) translate(-52.961486, -52.906718) "></path>
                <path d="M36.9434417,74.9633653 L24.4716997,46.3443305 C24.2483352,45.8316873 24.4927818,45.2392657 25.0177184,45.0211066 C25.0300436,45.0159844 25.0424696,45.0110968 25.0549894,45.0064465 C29.1073009,43.5012909 33.3880165,42.7524955 37.8971362,42.7600036 C42.4052858,42.7677653 46.6531442,43.5306777 50.6407113,45.0487975 C51.172264,45.2511616 51.4351807,45.8360186 51.227954,46.3551078 C51.2244245,46.3639489 51.2207675,46.3727408 51.216984,46.3814811 L38.8454391,74.9611321 C38.6232982,75.4743024 38.0172237,75.7144502 37.4917337,75.4975171 C37.2449524,75.3956407 37.048357,75.2041154 36.9434417,74.9633653 Z" id="Triangle" fill="#F3A82E" transform="translate(37.843873, 59.168697) rotate(180.000000) translate(-37.843873, -59.168697) "></path>
                <path d="M21.8260646,68.7012458 L9.35397817,40.0823463 C9.1306075,39.5697055 9.37505124,38.9772909 9.89999043,38.7591381 C9.91231565,38.754016 9.92474173,38.7491285 9.93726162,38.7444784 C13.9895944,37.2393694 18.2703396,36.4906161 22.7794971,36.4981614 C27.2876846,36.5059614 31.535585,37.268903 35.5231983,38.7870435 C36.0547571,38.9894103 36.3176809,39.5742647 36.1104568,40.0933478 C36.1069274,40.1021887 36.1032704,40.1109806 36.099487,40.1197207 L23.7280778,68.6990286 C23.5059394,69.2121927 22.8998618,69.4523334 22.3743657,69.2353978 C22.1275814,69.1335201 21.9309827,68.9419948 21.8260646,68.7012458 Z" id="Triangle" fill-opacity="0.3" fill="#F3A82E" transform="translate(22.726261, 52.906717) rotate(225.000000) translate(-22.726261, -52.906717) "></path>
                <path d="M15.5637831,53.5830988 L3.09183206,24.9645436 C2.86846381,24.451909 3.11291457,23.8594973 3.63785998,23.6413419 C3.65018535,23.6362198 3.66261157,23.6313322 3.67513161,23.626682 C7.72751099,22.1215517 12.0082983,21.3727688 16.5174936,21.3802768 C21.0257187,21.3880384 25.2736483,22.150938 29.2612823,23.6690324 C29.7928439,23.8713931 30.055765,24.4562403 29.8485348,24.9753208 C29.8450053,24.9841617 29.8413482,24.9929535 29.8375646,25.0016936 L17.4658124,53.5808656 C17.2436677,54.0940273 16.6375831,54.334171 16.1120844,54.1172417 C15.8652988,54.015367 15.6687002,53.8238449 15.5637831,53.5830988 Z" id="Triangle" fill-opacity="0.3" fill="#F3A82E" transform="translate(16.464230, 37.788695) rotate(270.000000) translate(-16.464230, -37.788695) "></path>
                <path d="M21.8255784,38.4652162 L9.35397168,9.84652576 C9.1306096,9.3338887 9.37506327,8.74147004 9.90000611,8.5233084 C9.91233142,8.51818611 9.92475758,8.51329842 9.93727755,8.5086481 C13.9896356,7.00347115 18.2703933,6.25464617 22.7795507,6.262117 C27.287738,6.2698403 31.5356256,7.0327107 35.5232135,8.55078438 C36.0547689,8.75314231 36.3176829,9.33799223 36.1104501,9.85707882 C36.1069205,9.8659198 36.1032634,9.87471172 36.0994798,9.88345194 L23.7275917,38.4629671 C23.5054447,38.976135 22.8993631,39.2162858 22.3738706,38.999359 C22.127088,38.8974855 21.9304926,38.7059635 21.8255784,38.4652162 Z" id="Triangle" fill-opacity="0.3" fill="#F3A82E" transform="translate(22.726261, 22.670673) rotate(315.000000) translate(-22.726261, -22.670673) "></path>
                <ellipse id="Oval-Copy-6" fill="#D0021B" transform="translate(63.254561, 19.517872) rotate(45.000000) translate(-63.254561, -19.517872) " cx="63.2545614" cy="19.5178725" rx="3.61555473" ry="3.53073233"></ellipse>
                <ellipse id="Oval-Copy-6" fill="#D0021B" transform="translate(69.006627, 42.172570) rotate(90.000000) translate(-69.006627, -42.172570) " cx="69.0066271" cy="42.1725699" rx="3.61558502" ry="3.53070274"></ellipse>
                <ellipse id="Oval-Copy-6" fill="#D0021B" transform="translate(57.054930, 62.259253) rotate(135.000000) translate(-57.054930, -62.259253) " cx="57.0549301" cy="62.2592529" rx="3.61555473" ry="3.53073233"></ellipse>
                <ellipse id="Oval-Copy-6" fill="#D0021B" transform="translate(34.400612, 68.011415) rotate(180.000000) translate(-34.400612, -68.011415) " cx="34.4006124" cy="68.011415" rx="3.61552443" ry="3.53076192"></ellipse>
                <ellipse id="Oval-Copy-6" fill-opacity="0.3" fill="#D0021B" transform="translate(14.314266, 56.059518) rotate(225.000000) translate(-14.314266, -56.059518) " cx="14.314266" cy="56.0595177" rx="3.61555473" ry="3.53073233"></ellipse>
                <ellipse id="Oval-Copy-6" fill-opacity="0.3" fill="#D0021B" transform="translate(8.562200, 33.404820) rotate(270.000000) translate(-8.562200, -33.404820) " cx="8.56220023" cy="33.4048203" rx="3.61558502" ry="3.53070274"></ellipse>
                <ellipse id="Oval-Copy-6" fill-opacity="0.3" fill="#D0021B" transform="translate(20.513897, 13.318137) rotate(315.000000) translate(-20.513897, -13.318137) " cx="20.5138972" cy="13.3181373" rx="3.61555473" ry="3.53073233"></ellipse>
                <ellipse id="Oval-Copy-5" fill="#D0021B" transform="translate(54.646603, 12.709162) rotate(45.000000) translate(-54.646603, -12.709162) " cx="54.6466028" cy="12.7091624" rx="4.13206254" ry="4.03512266"></ellipse>
                <ellipse id="Oval-Copy-5" fill="#D0021B" transform="translate(67.152667, 31.775680) rotate(90.000000) translate(-67.152667, -31.775680) " cx="67.1526674" cy="31.7756802" rx="4.13209717" ry="4.03508885"></ellipse>
                <ellipse id="Oval-Copy-5" fill="#D0021B" transform="translate(62.513952, 54.101015) rotate(135.000000) translate(-62.513952, -54.101015) " cx="62.5139524" cy="54.1010155" rx="4.13206254" ry="4.03512266"></ellipse>
                <ellipse id="Oval-Copy-5" fill="#D0021B" transform="translate(43.447754, 66.607290) rotate(180.000000) translate(-43.447754, -66.607290) " cx="43.4477541" cy="66.6072897" rx="4.13202792" ry="4.03515647"></ellipse>
                <ellipse id="Oval-Copy-5" fill-opacity="0.3" fill="#D0021B" transform="translate(21.122793, 61.968497) rotate(225.000000) translate(-21.122793, -61.968497) " cx="21.122793" cy="61.9684969" rx="4.13206254" ry="4.03512266"></ellipse>
                <ellipse id="Oval-Copy-5" fill-opacity="0.3" fill="#D0021B" transform="translate(8.616728, 42.901979) rotate(270.000000) translate(-8.616728, -42.901979) " cx="8.61672846" cy="42.9019791" rx="4.13209717" ry="4.03508885"></ellipse>
                <ellipse id="Oval-Copy-5" fill-opacity="0.3" fill="#D0021B" transform="translate(13.255443, 20.576644) rotate(315.000000) translate(-13.255443, -20.576644) " cx="13.2554435" cy="20.5766438" rx="4.13206254" ry="4.03512266"></ellipse>
                <ellipse id="Oval-Copy" fill="#D0021B" transform="translate(50.335850, 24.489441) rotate(45.000000) translate(-50.335850, -24.489441) " cx="50.3358499" cy="24.489441" rx="4.13206254" ry="4.03512266"></ellipse>
                <ellipse id="Oval-Copy" fill="#D0021B" transform="translate(55.658152, 37.338830) rotate(90.000000) translate(-55.658152, -37.338830) " cx="55.6581517" cy="37.3388297" rx="4.13209717" ry="4.03508885"></ellipse>
                <ellipse id="Oval-Copy" fill="#D0021B" transform="translate(50.335850, 50.188218) rotate(135.000000) translate(-50.335850, -50.188218) " cx="50.3358499" cy="50.1882183" rx="4.13206254" ry="4.03512266"></ellipse>
                <ellipse id="Oval-Copy" fill="#D0021B" transform="translate(37.486677, 55.510609) rotate(180.000000) translate(-37.486677, -55.510609) " cx="37.4866766" cy="55.5106093" rx="4.13202792" ry="4.03515647"></ellipse>
                <ellipse id="Oval-Copy" fill-opacity="0.3" fill="#D0021B" transform="translate(24.637503, 50.188218) rotate(225.000000) translate(-24.637503, -50.188218) " cx="24.6375033" cy="50.1882183" rx="4.13206254" ry="4.03512266"></ellipse>
                <ellipse id="Oval-Copy" fill-opacity="0.3" fill="#D0021B" transform="translate(19.315201, 37.338830) rotate(270.000000) translate(-19.315201, -37.338830) " cx="19.3152015" cy="37.3388297" rx="4.13209717" ry="4.03508885"></ellipse>
                <ellipse id="Oval-Copy" fill-opacity="0.3" fill="#D0021B" transform="translate(24.637503, 24.489441) rotate(315.000000) translate(-24.637503, -24.489441) " cx="24.6375033" cy="24.489441" rx="4.13206254" ry="4.03512266"></ellipse>
            </g>
        </g>
    </g>
</svg>