<svg width="40" height="40" viewBox="0 0 40 40" fill="none" xmlns="http://www.w3.org/2000/svg">
<g opacity="0.9">
<path fill-rule="evenodd" clip-rule="evenodd" d="M23.8245 31.5246L9.58189 4.30395C9.32681 3.81636 9.5734 3.23704 10.1327 3.01C10.1458 3.00467 10.1591 2.99956 10.1724 2.99468C14.4952 1.41469 19.0853 0.55728 23.9428 0.422467C28.7992 0.287819 33.3966 0.890053 37.7349 2.22917C38.3132 2.40767 38.6129 2.9637 38.4044 3.47108C38.4008 3.47972 38.3971 3.48832 38.3933 3.49687L25.8733 31.4625C25.6485 31.9646 25.0024 32.2154 24.4302 32.0227C24.1615 31.9322 23.9443 31.7536 23.8245 31.5246Z" fill="#F3A82E"/>
<path fill-rule="evenodd" clip-rule="evenodd" d="M18.4007 13.1282C20.8211 13.0574 22.7305 11.2016 22.6656 8.98311C22.6007 6.76464 20.586 5.02362 18.1656 5.09444C15.7453 5.16525 13.8358 7.02108 13.9007 9.23955C13.9656 11.458 15.9803 13.199 18.4007 13.1282Z" fill="#D0021B"/>
<path fill-rule="evenodd" clip-rule="evenodd" d="M29.2017 11.1626C31.6859 11.0899 33.6479 9.2589 33.584 7.07292C33.52 4.88693 31.4543 3.17377 28.9701 3.24645C26.4859 3.31913 24.5239 5.15014 24.5878 7.33612C24.6518 9.5221 26.7175 11.2353 29.2017 11.1626Z" fill="#D0021B"/>
<path fill-rule="evenodd" clip-rule="evenodd" d="M24.5512 23.183C27.0355 23.1103 28.9975 21.2793 28.9335 19.0933C28.8696 16.9073 26.8039 15.1942 24.3196 15.2668C21.8354 15.3395 19.8734 17.1705 19.9374 19.3565C20.0013 21.5425 22.067 23.2557 24.5512 23.183Z" fill="#D0021B"/>
</g>
<path fill-rule="evenodd" clip-rule="evenodd" d="M14.4329 38.5246L0.190311 11.304C-0.0647715 10.8164 0.181826 10.237 0.741135 10.01C0.754267 10.0047 0.767515 9.99956 0.78087 9.99468C5.10358 8.41469 9.69368 7.55728 14.5512 7.42247C19.4076 7.28782 24.005 7.89005 28.3433 9.22917C28.9216 9.40767 29.2214 9.9637 29.0128 10.4711C29.0092 10.4797 29.0055 10.4883 29.0017 10.4969L16.4817 38.4625C16.2569 38.9646 15.6108 39.2154 15.0386 39.0227C14.7699 38.9322 14.5527 38.7536 14.4329 38.5246Z" fill="#F3A82E"/>
<path fill-rule="evenodd" clip-rule="evenodd" d="M9.0091 20.1282C11.4295 20.0574 13.339 18.2016 13.2741 15.9831C13.2091 13.7646 11.1944 12.0236 8.77405 12.0944C6.35368 12.1652 4.4442 14.0211 4.5091 16.2395C4.57401 18.458 6.58873 20.199 9.0091 20.1282Z" fill="#D0021B"/>
<path fill-rule="evenodd" clip-rule="evenodd" d="M19.8101 18.1626C22.2943 18.0899 24.2563 16.2589 24.1924 14.0729C24.1284 11.8869 22.0627 10.1738 19.5785 10.2464C17.0943 10.3191 15.1323 12.1501 15.1962 14.3361C15.2602 16.5221 17.3259 18.2353 19.8101 18.1626Z" fill="#D0021B"/>
<path fill-rule="evenodd" clip-rule="evenodd" d="M15.1597 30.183C17.6439 30.1103 19.6059 28.2793 19.5419 26.0933C19.478 23.9073 17.4123 22.1942 14.9281 22.2668C12.4438 22.3395 10.4818 24.1705 10.5458 26.3565C10.6097 28.5425 12.6754 30.2557 15.1597 30.183Z" fill="#D0021B"/>
</svg>
