<svg width="63" height="55" viewBox="0 0 63 55" fill="none" xmlns="http://www.w3.org/2000/svg">
<path fill-rule="evenodd" clip-rule="evenodd" d="M54.999 40.6008L47.0278 43.2909C46.885 43.3391 46.8229 43.5 46.889 43.6502C46.8906 43.6537 46.8922 43.6573 46.8939 43.6607C47.4383 44.7874 48.1727 45.8218 49.097 46.764C50.0211 47.7059 51.035 48.4535 52.1385 49.0068C52.2856 49.0805 52.4502 49.0272 52.506 48.8878C52.507 48.8854 52.5079 48.883 52.5088 48.8806L55.3878 40.9992C55.4395 40.8577 55.361 40.6864 55.2123 40.6166C55.1425 40.5838 55.066 40.5782 54.999 40.6008Z" fill="#F3A82E"/>
<path fill-rule="evenodd" clip-rule="evenodd" d="M50.0867 43.1147C50.5587 43.5972 50.6371 44.286 50.2618 44.6531C49.8864 45.0203 49.1995 44.9267 48.7275 44.4441C48.2555 43.9615 48.1772 43.2727 48.5525 42.9056C48.9278 42.5385 49.6147 42.6321 50.0867 43.1147Z" fill="#D0021B"/>
<path fill-rule="evenodd" clip-rule="evenodd" d="M52.1715 45.6346C52.6435 46.1171 52.6784 46.8485 52.2495 47.268C51.8205 47.6876 51.0902 47.6365 50.6182 47.1539C50.1462 46.6714 50.1113 45.94 50.5402 45.5205C50.9692 45.1009 51.6995 45.152 52.1715 45.6346Z" fill="#D0021B"/>
<path fill-rule="evenodd" clip-rule="evenodd" d="M53.552 42.3848C54.024 42.8674 54.0589 43.5987 53.6299 44.0183C53.201 44.4378 52.4706 44.3867 51.9986 43.9042C51.5266 43.4216 51.4917 42.6903 51.9207 42.2707C52.3496 41.8512 53.08 41.9023 53.552 42.3848Z" fill="#D0021B"/>
<path fill-rule="evenodd" clip-rule="evenodd" d="M23.7949 42.4545L28.3024 46.8937C28.3832 46.9732 28.5131 46.9735 28.5926 46.8944C28.5945 46.8925 28.5963 46.8907 28.5981 46.8887C29.1784 46.2646 29.6321 45.5415 29.9593 44.7196C30.2865 43.8979 30.4517 43.0663 30.455 42.225C30.4555 42.1128 30.3639 42.0207 30.2506 42.0191C30.2487 42.0191 30.2467 42.0191 30.2448 42.0191L23.934 42.1082C23.8207 42.1098 23.731 42.202 23.7338 42.3141C23.7351 42.3668 23.757 42.4171 23.7949 42.4545Z" fill="#F3A82E"/>
<path fill-rule="evenodd" clip-rule="evenodd" d="M27.1528 44.9804C27.3209 44.5603 27.7613 44.3415 28.1365 44.4916C28.5117 44.6417 28.6795 45.104 28.5114 45.5241C28.3434 45.9441 27.9029 46.163 27.5277 46.0128C27.1526 45.8627 26.9847 45.4005 27.1528 44.9804Z" fill="#D0021B"/>
<path fill-rule="evenodd" clip-rule="evenodd" d="M28.1586 43.0298C28.3266 42.6097 28.8105 42.4083 29.2393 42.5799C29.6681 42.7514 29.8794 43.2311 29.7113 43.6511C29.5432 44.0712 29.0594 44.2727 28.6306 44.1011C28.2018 43.9295 27.9905 43.4499 28.1586 43.0298Z" fill="#D0021B"/>
<path fill-rule="evenodd" clip-rule="evenodd" d="M25.4912 42.9429C25.6593 42.5228 26.1431 42.3214 26.5719 42.4929C27.0007 42.6645 27.212 43.1441 27.0439 43.5642C26.8759 43.9843 26.392 44.1857 25.9632 44.0142C25.5344 43.8426 25.3231 43.363 25.4912 42.9429Z" fill="#D0021B"/>
<path fill-rule="evenodd" clip-rule="evenodd" d="M40.0693 49.522L43.0747 41.9753C43.1285 41.8401 43.049 41.6938 42.8971 41.6485C42.8936 41.6475 42.89 41.6465 42.8864 41.6455C41.717 41.3415 40.4968 41.2349 39.2256 41.3258C37.9548 41.4167 36.7708 41.6951 35.6736 42.1611C35.5274 42.2232 35.4637 42.3775 35.5314 42.5059C35.5325 42.5081 35.5337 42.5102 35.535 42.5124L39.533 49.5589C39.6048 49.6855 39.78 49.7348 39.9243 49.6691C39.992 49.6382 40.044 49.5855 40.0693 49.522Z" fill="#F3A82E"/>
<path fill-rule="evenodd" clip-rule="evenodd" d="M41.2916 44.336C40.6414 44.3815 40.0857 44.0085 40.0503 43.5028C40.0149 42.9971 40.5133 42.5502 41.1635 42.5047C41.8137 42.4592 42.3694 42.8323 42.4048 43.338C42.4402 43.8437 41.9418 44.2905 41.2916 44.336Z" fill="#D0021B"/>
<path fill-rule="evenodd" clip-rule="evenodd" d="M38.134 44.2939C37.4838 44.3394 36.9239 43.9078 36.8835 43.3299C36.8431 42.7519 37.3373 42.2465 37.9875 42.201C38.6377 42.1555 39.1976 42.5872 39.238 43.1651C39.2785 43.743 38.7842 44.2484 38.134 44.2939Z" fill="#D0021B"/>
<path fill-rule="evenodd" clip-rule="evenodd" d="M39.6617 47.3418C39.0115 47.3873 38.4516 46.9556 38.4112 46.3777C38.3708 45.7998 38.8651 45.2944 39.5152 45.2489C40.1654 45.2034 40.7253 45.635 40.7657 46.213C40.8062 46.7909 40.3119 47.2963 39.6617 47.3418Z" fill="#D0021B"/>
<path fill-rule="evenodd" clip-rule="evenodd" d="M7.36079 44.0846L12.277 38.3637C12.365 38.2612 12.3394 38.1087 12.2196 38.0231C12.2168 38.0211 12.214 38.0192 12.2111 38.0173C11.2759 37.3975 10.2364 36.9357 9.09263 36.632C7.94911 36.3284 6.8253 36.2157 5.72121 36.2939C5.57403 36.3044 5.47153 36.4207 5.49226 36.5538C5.49261 36.5561 5.493 36.5584 5.49342 36.5606L6.87867 43.9553C6.90354 44.088 7.0425 44.1842 7.18903 44.17C7.25785 44.1633 7.31943 44.1327 7.36079 44.0846Z" fill="#F3A82E"/>
<path fill-rule="evenodd" clip-rule="evenodd" d="M9.99885 39.8991C9.41412 39.7429 9.0386 39.2476 9.16009 38.7928C9.28158 38.338 9.85409 38.096 10.4388 38.2522C11.0235 38.4084 11.3991 38.9037 11.2776 39.3585C11.1561 39.8133 10.5836 40.0553 9.99885 39.8991Z" fill="#D0021B"/>
<path fill-rule="evenodd" clip-rule="evenodd" d="M7.23839 38.9094C6.65367 38.7532 6.29221 38.2052 6.43106 37.6855C6.56991 37.1657 7.15649 36.871 7.74121 37.0272C8.32594 37.1834 8.6874 37.7314 8.54855 38.2512C8.4097 38.7709 7.82312 39.0656 7.23839 38.9094Z" fill="#D0021B"/>
<path fill-rule="evenodd" clip-rule="evenodd" d="M7.66054 42.0471C7.07582 41.8909 6.71436 41.3429 6.85321 40.8232C6.99206 40.3034 7.57864 40.0087 8.16336 40.1649C8.74809 40.3211 9.10955 40.8691 8.9707 41.3889C8.83185 41.9086 8.24527 42.2033 7.66054 42.0471Z" fill="#D0021B"/>
<path fill-rule="evenodd" clip-rule="evenodd" d="M20.1883 49.1766L19.7739 41.5315C19.7665 41.3945 19.6406 41.3008 19.4927 41.3221C19.4893 41.3226 19.4858 41.3232 19.4823 41.3238C18.3617 41.5263 17.2756 41.9179 16.2241 42.4985C15.1728 43.079 14.2701 43.7856 13.5158 44.6183C13.4152 44.7292 13.4218 44.8865 13.5305 44.9695C13.5323 44.9709 13.5342 44.9723 13.5361 44.9737L19.7441 49.4204C19.8556 49.5002 20.0249 49.4731 20.1224 49.3598C20.1681 49.3066 20.1918 49.2409 20.1883 49.1766Z" fill="#F3A82E"/>
<path fill-rule="evenodd" clip-rule="evenodd" d="M19.1824 44.2564C18.6442 44.5525 18.0212 44.4532 17.7908 44.0346C17.5605 43.616 17.8101 43.0366 18.3483 42.7404C18.8866 42.4443 19.5096 42.5436 19.74 42.9622C19.9703 43.3808 19.7207 43.9603 19.1824 44.2564Z" fill="#D0021B"/>
<path fill-rule="evenodd" clip-rule="evenodd" d="M16.4644 45.4696C15.9262 45.7657 15.2764 45.6179 15.0132 45.1395C14.75 44.661 14.9729 44.0331 15.5112 43.737C16.0494 43.4409 16.6991 43.5887 16.9623 44.0671C17.2256 44.5455 17.0026 45.1734 16.4644 45.4696Z" fill="#D0021B"/>
<path fill-rule="evenodd" clip-rule="evenodd" d="M18.9771 47.4727C18.4389 47.7689 17.7891 47.6211 17.5259 47.1427C17.2627 46.6642 17.4856 46.0363 18.0239 45.7402C18.5621 45.444 19.2118 45.5918 19.475 46.0703C19.7383 46.5487 19.5153 47.1766 18.9771 47.4727Z" fill="#D0021B"/>
<path fill-rule="evenodd" clip-rule="evenodd" d="M41.3994 7.17242C39.3695 4.43681 36.2127 2.55969 32.5502 2.26909C29.7448 2.0465 27.0856 2.78989 24.8999 4.22019C23.4938 3.49081 21.9217 3.02451 20.2434 2.89135C13.9219 2.38978 8.34303 6.79297 7.2502 12.9079C4.53729 14.348 2.59513 17.1008 2.33419 20.3895C1.92806 25.508 5.74823 29.9867 10.8668 30.3928C12.4011 30.5145 13.8779 30.2565 15.2047 29.6976C16.7193 32.0679 19.2875 33.7255 22.3078 33.9652C25.2968 34.2023 28.0676 32.9983 29.9366 30.9361C31.925 33.3356 34.8438 34.9598 38.1957 35.2258C41.6346 35.4987 44.8489 34.2877 47.2087 32.1302C48.1802 32.5707 49.2432 32.8532 50.3678 32.9424C55.576 33.3556 60.1331 29.4686 60.5463 24.2604C60.8355 20.6154 59.0184 17.2893 56.1162 15.4794C55.2233 10.6976 51.2199 6.91359 46.1386 6.51042C44.4739 6.37834 42.8663 6.62283 41.3994 7.17242Z" fill="white"/>
<line x1="27.7648" y1="35.103" x2="27.5154" y2="38.2464" stroke="white"/>
<line x1="40.3384" y1="36.1007" x2="40.0267" y2="40.03" stroke="white"/>
<line x1="51.5898" y1="33.8302" x2="51.278" y2="37.7595" stroke="white"/>
<line x1="18.3356" y1="34.2926" x2="18.6226" y2="40.6418" stroke="white"/>
<line x1="10.6452" y1="31.4722" x2="9.55279" y2="35.2735" stroke="white"/>
</svg>
