<svg width="29" height="32" viewBox="0 0 29 32" fill="none" xmlns="http://www.w3.org/2000/svg">
<path fill-rule="evenodd" clip-rule="evenodd" d="M13.5296 31.4013L0.0891647 3.49505C-0.151549 2.99518 0.111884 2.41751 0.677595 2.20479C0.690877 2.19979 0.704268 2.19502 0.717761 2.19049C5.08483 0.722824 9.69804 -0.0073211 14.5574 5.53324e-05C19.4157 0.00756838 23.9935 0.751479 28.2908 2.23179C28.8637 2.42911 29.147 2.9994 28.9237 3.50556C28.9199 3.51418 28.9159 3.52275 28.9118 3.53128L15.5794 31.3991C15.34 31.8995 14.6868 32.1336 14.1205 31.9221C13.8546 31.8228 13.6427 31.636 13.5296 31.4013Z" fill="#F3A82E"/>
<path fill-rule="evenodd" clip-rule="evenodd" d="M7.5 12C9.98528 12 12 10.433 12 8.5C12 6.567 9.98528 5 7.5 5C5.01472 5 3 6.567 3 8.5C3 10.433 5.01472 12 7.5 12Z" fill="#D0021B"/>
<path fill-rule="evenodd" clip-rule="evenodd" d="M19.5 11C21.9853 11 24 9.20914 24 7C24 4.79086 21.9853 3 19.5 3C17.0147 3 15 4.79086 15 7C15 9.20914 17.0147 11 19.5 11Z" fill="#D0021B"/>
<path fill-rule="evenodd" clip-rule="evenodd" d="M14.5 23C16.9853 23 19 21.2091 19 19C19 16.7909 16.9853 15 14.5 15C12.0147 15 10 16.7909 10 19C10 21.2091 12.0147 23 14.5 23Z" fill="#D0021B"/>
</svg>
