<?xml version="1.0" encoding="UTF-8"?>
<svg width="126px" height="121px" viewBox="0 0 126 121" version="1.1" xmlns="http://www.w3.org/2000/svg" xmlns:xlink="http://www.w3.org/1999/xlink">
    <!-- Generator: Sketch 55.2 (78181) - https://sketchapp.com -->
    <title>Group</title>
    <desc>Created with Sketch.</desc>
    <g id="Games" stroke="none" stroke-width="1" fill="none" fill-rule="evenodd">
        <g id="Artboard" transform="translate(-80.000000, -43.000000)">
            <g id="Group" transform="translate(59.000000, 40.000000)">
                <path d="M80.0022155,69.1005399 L64.4723206,33.4633055 C64.1941857,32.8249476 64.4985723,32.0872475 65.1522268,31.8155896 C65.1675741,31.8092113 65.1830471,31.8031251 65.1986369,31.7973344 C70.2446016,29.9230719 75.5749767,28.9906507 81.1897621,29 C86.8033395,29.0096651 92.0928005,29.9596653 97.0581453,31.8500711 C97.7200381,32.1020606 98.0474237,32.8303412 97.7893836,33.4767258 C97.7849887,33.4877349 97.780435,33.4986829 97.7757238,33.5095665 L82.3705951,69.097759 C82.0939837,69.7367732 81.3392958,70.0358121 80.6849523,69.7656809 C80.3776585,69.6388215 80.1328567,69.4003288 80.0022155,69.1005399 Z" id="Triangle" fill="#F3A82E"></path>
                <ellipse id="Oval-Copy-5" fill="#D0021B" cx="74.2471198" cy="39.0494534" rx="5.14522822" ry="5.02469136"></ellipse>
                <ellipse id="Oval-Copy-6" fill="#D0021B" cx="87.7533439" cy="38.421367" rx="4.50207469" ry="4.39660494"></ellipse>
                <ellipse id="Oval-Copy" fill="#D0021B" cx="80.6786551" cy="52.8673546" rx="5.14522822" ry="5.02469136"></ellipse>
                <path d="M98.8272635,76.8976758 L83.2964913,41.2607862 C83.0183406,40.6224345 83.3227198,39.8847522 83.9763808,39.6131102 C83.9917283,39.6067322 84.0072015,39.6006464 84.0227914,39.5948561 C89.0688105,37.7207123 94.399261,36.7883984 100.014143,36.7978424 C105.627817,36.8076051 110.917385,37.7576796 115.882847,39.6481382 C116.544755,39.9001348 116.872159,40.6284084 116.614126,41.2747775 C116.609731,41.2857864 116.605177,41.2967341 116.600466,41.3076175 L101.195684,76.8949356 C100.919078,77.5339341 100.164383,77.8329549 99.5100234,77.5628171 C99.2027222,77.4359546 98.957912,77.1974618 98.8272635,76.8976758 Z" id="Triangle" fill="#F3A82E" transform="translate(99.947887, 57.230063) rotate(45.000000) translate(-99.947887, -57.230063) "></path>
                <path d="M106.624249,95.7228504 L91.0938217,60.0868382 C90.8156772,59.4485022 91.1200742,58.7108273 91.7737511,58.4391787 C91.789099,58.4328006 91.8045725,58.4267146 91.8201628,58.4209242 C96.8663006,56.546726 102.196858,55.6143367 107.811836,55.6236857 C113.425606,55.6333505 118.715249,56.583318 123.680764,58.4736591 C124.342679,58.72564 124.670076,59.4538955 124.412027,60.100258 C124.407632,60.1112667 124.403078,60.1222143 124.398367,60.1330976 L108.99271,95.7200697 C108.716089,96.359062 107.961375,96.6580905 107.307009,96.3879686 C106.999705,96.2611136 106.754895,96.0226291 106.624249,95.7228504 Z" id="Triangle" fill="#F3A82E" transform="translate(107.745511, 76.055556) rotate(90.000000) translate(-107.745511, -76.055556) "></path>
                <path d="M98.8260259,114.5487 L83.2964758,78.912343 C83.018347,78.2740008 83.3227515,77.5363081 83.9764218,77.2646437 C83.9917696,77.2582652 84.0072429,77.2521788 84.022833,77.246388 C89.0689165,75.3720712 94.3993989,74.4395745 100.01428,74.4488288 C105.627954,74.4583961 110.917489,75.4082892 115.882887,77.2985776 C116.544787,77.5505514 116.872165,78.2788138 116.61411,78.9251918 C116.609715,78.9362008 116.605161,78.9471487 116.600449,78.9580322 L101.194446,114.545879 C100.917819,115.184887 100.163113,115.483933 99.508763,115.213818 C99.2014661,115.086966 98.9566642,114.848482 98.8260259,114.5487 Z" id="Triangle" fill="#F3A82E" transform="translate(99.947887, 94.881048) rotate(135.000000) translate(-99.947887, -94.881048) "></path>
                <path d="M80.0022155,122.34651 L64.4723206,86.7092755 C64.1941857,86.0709177 64.4985723,85.3332175 65.1522268,85.0615596 C65.1675741,85.0551813 65.1830471,85.0490951 65.1986369,85.0433044 C70.2446016,83.169042 75.5749767,82.2366207 81.1897621,82.24597 C86.8033395,82.2556351 92.0928005,83.2056353 97.0581453,85.0960412 C97.7200381,85.3480307 98.0474237,86.0763112 97.7893836,86.7226958 C97.7849887,86.7337049 97.780435,86.7446529 97.7757238,86.7555365 L82.3705951,122.343729 C82.0939837,122.982743 81.3392958,123.281782 80.6849523,123.011651 C80.3776585,122.884792 80.1328567,122.646299 80.0022155,122.34651 Z" id="Triangle" fill="#F3A82E" transform="translate(81.123439, 102.678541) rotate(180.000000) translate(-81.123439, -102.678541) "></path>
                <path d="M61.1783672,114.54866 L45.647595,78.9117707 C45.3694443,78.273419 45.6738235,77.5357367 46.3274845,77.2640947 C46.3428321,77.2577167 46.3583052,77.2516309 46.3738951,77.2458406 C51.4199143,75.3716968 56.7503648,74.4393829 62.3652465,74.4488269 C67.9789204,74.4585896 73.2684884,75.4086641 78.2339507,77.2991227 C78.8958592,77.5511193 79.2232629,78.2793929 78.9652295,78.925762 C78.9608347,78.9367709 78.9562811,78.9477186 78.95157,78.958602 L63.5467873,114.54592 C63.2701822,115.184919 62.5154864,115.483939 61.8611271,115.213802 C61.5538259,115.086939 61.3090157,114.848446 61.1783672,114.54866 Z" id="Triangle" fill="#F3A82E" transform="translate(62.298991, 94.881048) rotate(225.000000) translate(-62.298991, -94.881048) "></path>
                <path d="M53.380105,95.7228504 L37.8496776,60.0868382 C37.5715331,59.4485022 37.8759301,58.7108273 38.529607,58.4391787 C38.5449549,58.4328006 38.5604284,58.4267146 38.5760187,58.4209242 C43.6221565,56.546726 48.9527144,55.6143367 54.5676923,55.6236857 C60.1814622,55.6333505 65.4711047,56.583318 70.4366197,58.4736591 C71.0985352,58.72564 71.425932,59.4538955 71.1678831,60.100258 C71.1634881,60.1112667 71.1589342,60.1222143 71.1542228,60.1330976 L55.7485658,95.7200697 C55.471945,96.359062 54.7172311,96.6580905 54.0628652,96.3879686 C53.7555609,96.2611136 53.5107507,96.0226291 53.380105,95.7228504 Z" id="Triangle" fill-opacity="0.3" fill="#F3A82E" transform="translate(54.501367, 76.055556) rotate(270.000000) translate(-54.501367, -76.055556) "></path>
                <path d="M61.1771286,76.8977145 L45.6475785,41.2613575 C45.3694497,40.6230153 45.6738541,39.8853226 46.3275245,39.6136581 C46.3428722,39.6072796 46.3583456,39.6011933 46.3739357,39.5954025 C51.4200191,37.7210856 56.7505016,36.7885889 62.3653831,36.7978433 C67.9790565,36.8074105 73.268592,37.7573037 78.2339895,39.647592 C78.8958894,39.8995658 79.2232681,40.6278283 78.9652125,41.2742062 C78.9608173,41.2852152 78.9562633,41.2961631 78.9515519,41.3070466 L63.5455488,76.8948931 C63.2689218,77.5339011 62.5142157,77.8329477 61.8598657,77.5628324 C61.5525688,77.4359804 61.3077668,77.197496 61.1771286,76.8977145 Z" id="Triangle" fill-opacity="0.2" fill="#F3A82E" transform="translate(62.298990, 57.230063) rotate(315.000000) translate(-62.298990, -57.230063) "></path>
                <ellipse id="Oval-Copy-6" fill="#D0021B" transform="translate(112.764994, 53.304209) rotate(45.000000) translate(-112.764994, -53.304209) " cx="112.764994" cy="53.3042087" rx="4.50215188" ry="4.39652955"></ellipse>
                <ellipse id="Oval-Copy-6" fill="#D0021B" transform="translate(119.927504, 81.514481) rotate(90.000000) translate(-119.927504, -81.514481) " cx="119.927504" cy="81.5144809" rx="4.50222908" ry="4.39645417"></ellipse>
                <ellipse id="Oval-Copy-6" fill="#D0021B" transform="translate(105.045172, 106.526989) rotate(135.000000) translate(-105.045172, -106.526989) " cx="105.045172" cy="106.526989" rx="4.50215188" ry="4.39652955"></ellipse>
                <ellipse id="Oval-Copy-6" fill="#D0021B" transform="translate(76.835868, 113.689744) rotate(180.000000) translate(-76.835868, -113.689744) " cx="76.8358677" cy="113.689744" rx="4.50207469" ry="4.39660494"></ellipse>
                <ellipse id="Oval-Copy-6" fill="#D0021B" transform="translate(51.824218, 98.806902) rotate(225.000000) translate(-51.824218, -98.806902) " cx="51.8242177" cy="98.8069024" rx="4.50215188" ry="4.39652955"></ellipse>
                <ellipse id="Oval-Copy-6" fill-opacity="0.3" fill="#D0021B" transform="translate(44.661708, 70.596630) rotate(270.000000) translate(-44.661708, -70.596630) " cx="44.6617078" cy="70.5966303" rx="4.50222908" ry="4.39645417"></ellipse>
                <ellipse id="Oval-Copy-6" fill-opacity="0.2" fill="#D0021B" transform="translate(59.544039, 45.584122) rotate(315.000000) translate(-59.544039, -45.584122) " cx="59.5440391" cy="45.5841225" rx="4.50215188" ry="4.39652955"></ellipse>
                <ellipse id="Oval-Copy-5" fill="#D0021B" transform="translate(102.046308, 44.825810) rotate(45.000000) translate(-102.046308, -44.825810) " cx="102.046308" cy="44.8258098" rx="5.14531644" ry="5.0246052"></ellipse>
                <ellipse id="Oval-Copy-5" fill="#D0021B" transform="translate(117.618941, 68.567979) rotate(90.000000) translate(-117.618941, -68.567979) " cx="117.618941" cy="68.5679788" rx="5.14540466" ry="5.02451905"></ellipse>
                <ellipse id="Oval-Copy-5" fill="#D0021B" transform="translate(111.842783, 96.368120) rotate(135.000000) translate(-111.842783, -96.368120) " cx="111.842783" cy="96.3681199" rx="5.14531644" ry="5.0246052"></ellipse>
                <ellipse id="Oval-Copy-5" fill="#D0021B" transform="translate(88.101428, 111.941287) rotate(180.000000) translate(-88.101428, -111.941287) " cx="88.1014279" cy="111.941287" rx="5.14522822" ry="5.02469136"></ellipse>
                <ellipse id="Oval-Copy-5" fill="#D0021B" transform="translate(60.302240, 106.164931) rotate(225.000000) translate(-60.302240, -106.164931) " cx="60.3022401" cy="106.164931" rx="5.14531644" ry="5.0246052"></ellipse>
                <ellipse id="Oval-Copy-5" fill-opacity="0.3" fill="#D0021B" transform="translate(44.729607, 82.422762) rotate(270.000000) translate(-44.729607, -82.422762) " cx="44.7296067" cy="82.4227619" rx="5.14540466" ry="5.02451905"></ellipse>
                <ellipse id="Oval-Copy-5" fill-opacity="0.2" fill="#D0021B" transform="translate(50.505765, 54.622621) rotate(315.000000) translate(-50.505765, -54.622621) " cx="50.505765" cy="54.6226209" rx="5.14531644" ry="5.0246052"></ellipse>
                <ellipse id="Oval-Copy" fill="#D0021B" transform="translate(96.678530, 59.494947) rotate(45.000000) translate(-96.678530, -59.494947) " cx="96.6785298" cy="59.494947" rx="5.14531644" ry="5.0246052"></ellipse>
                <ellipse id="Oval-Copy" fill="#D0021B" transform="translate(103.305895, 75.495370) rotate(90.000000) translate(-103.305895, -75.495370) " cx="103.305895" cy="75.4953704" rx="5.14540466" ry="5.02451905"></ellipse>
                <ellipse id="Oval-Copy" fill="#D0021B" transform="translate(96.678530, 91.495794) rotate(135.000000) translate(-96.678530, -91.495794) " cx="96.6785298" cy="91.4957938" rx="5.14531644" ry="5.0246052"></ellipse>
                <ellipse id="Oval-Copy" fill="#D0021B" transform="translate(80.678655, 98.123386) rotate(180.000000) translate(-80.678655, -98.123386) " cx="80.6786551" cy="98.1233861" rx="5.14522822" ry="5.02469136"></ellipse>
                <ellipse id="Oval-Copy" fill="#D0021B" transform="translate(64.678780, 91.495794) rotate(225.000000) translate(-64.678780, -91.495794) " cx="64.6787804" cy="91.4957938" rx="5.14531644" ry="5.0246052"></ellipse>
                <ellipse id="Oval-Copy" fill-opacity="0.3" fill="#D0021B" transform="translate(58.051415, 75.495370) rotate(270.000000) translate(-58.051415, -75.495370) " cx="58.0514153" cy="75.4953704" rx="5.14540466" ry="5.02451905"></ellipse>
                <ellipse id="Oval-Copy" fill-opacity="0.2" fill="#D0021B" transform="translate(64.678780, 59.494947) rotate(315.000000) translate(-64.678780, -59.494947) " cx="64.6787804" cy="59.494947" rx="5.14531644" ry="5.0246052"></ellipse>
                <text id="Allocate-Slices" font-family="Roboto-Medium, Roboto" font-size="16" font-weight="400" letter-spacing="1.45054892" fill="#FFFFFF">
                    <tspan x="21.3168925" y="15">Allocate Slices</tspan>
                </text>
            </g>
        </g>
    </g>
</svg>